<?xml version="1.0" encoding="iso-8859-1"?>
<svg height="512pt" viewBox="0 0 512 512" width="512pt" xmlns="http://www.w3.org/2000/svg"><path d="m512 256c0 27.886719-4.460938 54.742188-12.714844 79.871094-6.574218 20.03125-15.550781 38.964844-26.582031 56.476562-11.507813 18.246094-25.234375 34.933594-40.835937 49.675782-9.382813 8.871093-19.433594 17.042968-30.074219 24.429687-41.367188 28.714844-91.613281 45.546875-145.792969 45.546875s-104.417969-16.824219-145.785156-45.546875c-10.648438-7.386719-20.699219-15.558594-30.082032-24.429687-15.601562-14.742188-29.339843-31.429688-40.84375-49.675782-11.035156-17.511718-20.011718-36.457031-26.582031-56.484375-8.246093-25.132812-12.707031-51.976562-12.707031-79.863281 0-29.519531 4.996094-57.875 14.191406-84.269531 7-20.105469 16.445313-39.058594 27.96875-56.519531 4.902344-7.441407 10.1875-14.609376 15.84375-21.472657 7.03125-8.589843 14.625-16.707031 22.714844-24.304687 45.808594-43.058594 107.457031-69.433594 175.28125-69.433594s129.472656 26.375 175.28125 69.433594c8.089844 7.597656 15.683594 15.714844 22.714844 24.304687 5.644531 6.863281 10.929687 14.023438 15.832031 21.460938 11.535156 17.460937 20.972656 36.425781 27.980469 56.53125 9.195312 26.394531 14.191406 54.75 14.191406 84.269531zm0 0" fill="#ffe161"/><path d="m499.285156 335.871094c-17.535156 53.457031-52.195312 99.140625-97.492187 130.582031-97.195313 5.589844-194.378907 5.589844-291.578125 0-45.304688-31.429687-79.976563-77.132813-97.507813-130.589844-2.582031-54.710937-2.089843-109.421875 1.484375-164.132812 2.128906-32.582031 5.347656-65.160157 9.652344-97.742188 18.957031-1.734375 37.921875-3.25 56.875-4.554687 116.859375-8.066406 233.703125-8.066406 350.5625 0 18.953125 1.304687 37.910156 2.820312 56.863281 4.554687 4.316407 32.582031 7.535157 65.160157 9.664063 97.742188 3.566406 54.710937 4.054687 109.429687 1.476562 164.140625zm0 0" fill="#76b8de"/><path d="m472.703125 392.347656c-11.507813 18.246094-25.234375 34.933594-40.835937 49.675782-117.238282 8.757812-234.484376 8.757812-351.734376 0-15.601562-14.742188-29.339843-31.429688-40.84375-49.675782-9.082031-92.367187-8.121093-184.757812 2.871094-277.136718.804688-6.769532 1.671875-13.554688 2.582032-20.324219 4.421874-.398438 8.839843-.785157 13.261718-1.148438 132-11.085937 264.003906-11.085937 395.992188 0 4.421875.363281 8.832031.75 13.25 1.148438.910156 6.769531 1.777344 13.542969 2.582031 20.3125 11.003906 92.390625 11.964844 184.769531 2.875 277.148437zm0 0" fill="#e6e6e6"/><g fill="#383a4c"><path d="m70.171875 113.480469h29.957031v300.929687h-29.957031zm0 0"/><path d="m119.773438 113.480469h29.957031v232.847656h-29.957031zm0 0"/><path d="m417.398438 113.480469h29.957031v232.847656h-29.957031zm0 0"/><path d="m367.792969 113.480469h29.957031v232.847656h-29.957031zm0 0"/><path d="m318.1875 113.480469h29.957031v232.847656h-29.957031zm0 0"/><path d="m268.585938 113.480469h29.957031v300.929687h-29.957031zm0 0"/><path d="m218.980469 113.480469h29.957031v232.847656h-29.957031zm0 0"/><path d="m169.378906 113.480469h29.957032v232.847656h-29.957032zm0 0"/><path d="m130.425781 379.890625-1.800781 1.117187c-.554688.371094-1.113281.496094-1.546875.496094-1.796875 0-3.035156-1.921875-3.035156-3.84375 0-1.300781.554687-2.539062 1.796875-3.285156l8.179687-4.957031c.496094-.308594 1.113281-.433594 1.796875-.433594 1.984375 0 4.277344 1.175781 4.277344 3.035156v39.417969c0 1.980469-2.417969 2.972656-4.835938 2.972656-2.414062 0-4.832031-.992187-4.832031-2.972656zm0 0"/><path d="m184.511719 369.109375c7.1875 0 14.4375 4.523437 14.4375 12.828125 0 13.449219-19.148438 17.847656-19.148438 23.488281v.558594h16.238281c1.546876 0 2.910157 1.921875 2.910157 4.152344s-1.363281 4.273437-2.910157 4.273437h-22.0625c-1.738281 0-4.214843-1.175781-4.214843-2.972656v-6.011719c0-9.730469 19.523437-15.308593 19.523437-23.179687 0-1.980469-1.242187-4.398438-4.710937-4.398438-2.480469 0-4.648438 1.242188-4.648438 4.648438 0 1.796875-1.921875 3.53125-5.082031 3.53125-2.476562 0-4.335938-1.113282-4.335938-5.019532-.003906-7.558593 6.9375-11.898437 14.003907-11.898437zm0 0"/><path d="m237.699219 400.40625v-1.179688c0-4.152343-2.539063-4.957031-5.949219-4.957031-2.105469 0-2.789062-1.859375-2.789062-3.71875s.683593-3.71875 2.789062-3.71875c2.355469 0 4.835938-.308593 4.835938-5.328125 0-3.59375-2.046876-4.464844-4.585938-4.464844-3.039062 0-4.585938.746094-4.585938 3.160157 0 2.109375-.929687 3.535156-4.527343 3.535156-4.460938 0-5.019531-.929687-5.019531-3.90625 0-4.832031 3.472656-11.09375 14.128906-11.09375 7.871094 0 13.824218 2.851563 13.824218 11.21875 0 4.523437-1.675781 8.738281-4.773437 10.164063 3.65625 1.363281 6.320313 4.089843 6.320313 9.109374v1.175782c0 10.164062-7.003907 14.007812-15.679688 14.007812-10.65625 0-14.746094-6.507812-14.746094-11.714844 0-2.789062 1.175782-3.53125 4.585938-3.53125 3.964844 0 4.957031.867188 4.957031 3.222657 0 2.914062 2.726563 3.59375 5.515625 3.59375 4.210938.003906 5.699219-1.546875 5.699219-5.574219zm0 0"/><path d="m333.652344 385.46875c8.554687 0 15.183594 3.597656 15.183594 13.511719v1.179687c0 10.347656-6.753907 14.253906-15.058594 14.253906-9.976563 0-15.304688-5.703124-15.304688-11.527343 0-3.347657 1.796875-4.277344 4.832032-4.277344 4.214843 0 4.835937 1.609375 4.835937 3.59375 0 2.480469 2.351563 3.78125 5.390625 3.78125 3.53125 0 5.636719-1.796875 5.636719-5.824219v-1.179687c0-4.089844-2.105469-6.074219-5.515625-6.074219h-9.417969c-2.851563 0-3.71875-1.425781-3.71875-3.78125 0-.617188.0625-1.113281.121094-1.796875l1.675781-15.617187c.1875-1.859376.679688-2.972657 1.734375-2.972657h19.769531c1.859375 0 2.789063 2.105469 2.789063 4.214844 0 2.105469-.929688 4.210937-2.789063 4.210937h-13.570312l-.621094 8.304688zm0 0"/><path d="m397.984375 399.226562v.558594c0 10.660156-6.628906 14.628906-15.183594 14.628906-8.550781 0-15.242187-3.96875-15.242187-14.628906v-16.421875c0-10.660156 6.878906-14.625 15.800781-14.625 10.472656 0 14.625 6.507813 14.625 11.648438 0 2.976562-1.421875 3.90625-4.523437 3.90625-2.664063 0-5.019532-.683594-5.019532-3.53125 0-2.355469-2.476562-3.597657-5.390625-3.597657-3.65625 0-5.824219 1.921876-5.824219 6.199219v5.578125c1.980469-2.171875 4.769532-2.726562 7.746094-2.726562 7.0625 0 13.011719 3.097656 13.011719 13.011718zm-20.757813 1.242188c0 4.277344 2.105469 6.132812 5.574219 6.132812 3.472657 0 5.519531-1.855468 5.519531-6.132812v-.558594c0-4.523437-2.046874-6.257812-5.578124-6.257812-3.347657 0-5.515626 1.609375-5.515626 5.699218zm0 0"/><path d="m447.347656 379.457031c0 1.613281-.988281 4.03125-1.980468 5.890625l-14.503907 27.761719c-.496093.929687-1.421875 1.304687-2.726562 1.304687-3.035157 0-6.132813-2.109374-6.132813-4.898437 0-.558594.121094-1.050781.433594-1.609375l15.246094-26.402344v-4.339844h-11.09375v4.152344c0 1.675782-2.355469 2.976563-4.898438 2.976563-2.601562 0-4.769531-1.300781-4.769531-2.976563v-9.605468c0-1.484376 2.105469-2.972657 4.214844-2.972657h22c1.859375 0 4.214843 1.488281 4.214843 2.972657v7.746093zm0 0"/></g></svg>